<svg xmlns="http://www.w3.org/2000/svg" viewBox="0 0 512 512" style="height: 512px; width: 512px;"><defs><filter id="shadow-1" height="300%" width="300%" x="-100%" y="-100%"><feFlood flood-color="rgba(0, 0, 0, 1)" result="flood"></feFlood><feComposite in="flood" in2="SourceGraphic" operator="atop" result="composite"></feComposite><feGaussianBlur in="composite" stdDeviation="42" result="blur"></feGaussianBlur><feOffset dx="0" dy="0" result="offset"></feOffset><feComposite in="SourceGraphic" in2="offset" operator="over"></feComposite></filter></defs><path d="M0 0h512v512H0z" fill="url(#pattern)" fill-opacity="1"></path><svg><defs><filter id="b" x="-.024" width="1.048" y="-.024" height="1.048" color-interpolation-filters="sRGB"><feGaussianBlur stdDeviation="4.823"></feGaussianBlur></filter><filter id="a" x="-.012" width="1.024" y="-.012" height="1.024" color-interpolation-filters="sRGB"><feGaussianBlur stdDeviation="2.55"></feGaussianBlur></filter><filter id="c" x="-.112" width="1.225" y="-.077" height="1.153" color-interpolation-filters="sRGB"><feGaussianBlur stdDeviation="15.63"></feGaussianBlur></filter><filter id="e" x="-.237" width="1.475" y="-.249" height="1.497" color-interpolation-filters="sRGB"><feGaussianBlur stdDeviation="18.7"></feGaussianBlur></filter><filter id="d" x="-.213" width="1.426" y="-.151" height="1.303" color-interpolation-filters="sRGB"><feGaussianBlur stdDeviation="18.7"></feGaussianBlur></filter></defs><path d="M196.6 1.207c-2.5 11.323-4.8 22.703-10.2 33.383-7-10.68-12.6-20.91-16.7-31.988L2.494 4.338C13 104.9 10.86 175.3 1.979 278.3L15.4 295.5l-9.494 6.3L2.6 462.7l1.019 45.9 112.681 3.1c3.6-16.1 6.5-32.5 13.2-47.3 4.5 14.4 5.7 29.4 7 44.4l160 .3c.8-6.1.7-8.1 2.3-14.4 5.1 4.5 7.8 9.5 10.6 14.5.8-10.1 3.9-19.8 7-29.5 4.8 9.2 6.7 19.4 8.8 29.5l185.2.4-4.6-78.2-21.4-8.2 21.3-4.9 5.8-395.47c-7-6.73-13.3-13.744-18-21.465l-15.1.114-2.1 20.321-1.4 47.23.8 84.87-8.6-97.14c9.3-16.86 2.2-39.69 5.7-55.239-92.1 1.696-184.1.685-276.2-.314z" overflow="visible" color="#000" fill="#ebc893" fill-rule="evenodd" stroke="#e0aa58" enable-background="accumulate"></path><path d="M196.6 1.203c-2.5 11.327-4.8 22.707-10.2 33.387-7-10.68-12.6-20.91-16.7-31.99L2.494 4.336C13 104.9 10.86 175.3 1.979 278.3L15.4 295.5l-9.494 6.3L2.6 462.7l1.019 45.9 112.681 3.1c.5-2.1-7.9-2.3-7.4-4.5L5.244 504.5l-.914-47.3 4.63-153.7 12.42-9-13.093-16.8C16.95 177.3 16.36 104 6.113 5.992l162.687.164c4 10.804 10.3 24.254 17.1 34.664 5.3-10.41 9.5-25.97 12-37.02 89.8.974 173.8 3.521 263.6 1.867 4.6 1.226 10.6.431 11.3-4.149-92.1 1.696-184.1.684-276.2-.315zm296.9.158l-15.1.116-.6 6.277 13.5-2.557c4.6 7.533 9.7 12.383 16.6 18.943l-4.6 389.06-19.9 9.9 4.1-.6 18.2-4.2 5.8-395.47c-7-6.73-13.3-13.748-18-21.469zm9.6 435.739l3.5 69.7-177.7.1c.4 2.1-4.1.2-3.7 2.3l185.2.4-4.6-78.2zm-370 25.1c-1 2.2-2.9.4-3.7 2.6 4.2 14 5.8 29.5 7.1 44l158 .3c1.9-5 .8-9.7 4.3-14.4 5.1 4.5 7.8 9.5 10.6 14.5.8-10.1 3.9-19.8 7-29.5 1.8 3.4 3.2 7 4.3 10.6-1.4-5.6-2.4-8.3-5.1-13.4-3 9.4-6.7 16.2-7.5 26-2.7-4.9-5.4-9.7-10.4-14.1-3.4 4.6-6.2 9.1-8 14l-147.6 3.4c-3.4-14.6-7.1-30.3-9-44z" overflow="visible" color="#000" opacity=".527" fill="#c87137" fill-rule="evenodd" filter="url(#a)" enable-background="accumulate"></path><path color="#000" fill="#f6e7d0" d="M200.1 16.1c-2.3 10.67-10.5 21.38-15.6 31.44-6.6-10.06-13.9-19.69-17.7-30.12L17.34 19.05C24.61 113.6 7.605 179.3 16.85 277l18.26 20.1L10.34 309l7.1 141.6.96 43.3 90.2 3.4c3.4-15.2 15-35.6 21.3-49.6 4.3 13.6 15.4 36.7 16.6 50.9l45.1.8 13.8-18.7 14.4 22.2 68.7-8.6c1.8-4.7 4.5-9.1 7.8-13.5 4.8 4.2 7.4 8.9 10 13.6.8-9.5 7.7-19.6 10.6-28.7 4.5 8.6 19.9 28.9 33.1 33.9l114.6 5.6 22.3-14.7 19.4 14.7-14.5-67.6-34.6-14.2 37.5-15.1 2.1-96.9-14.5-21.9 15.2-13.4 5.1-239.63c-5.2-21.09-11.8-24.89-16.9-20.22l-4.2 2.11 2 19.14.7 44.47-7.1 124.23-18.3-137.78c8.8-15.88-3.9-35.38-.6-50.02-67.1 1.24-140.4-13.332-202.8-3.28-14 2.25-23.7 21.31-36.9 24.48-4.3 1.03-13.9-23.45-18.4-23.5z" overflow="visible" enable-background="accumulate" filter="url(#b)" fill-rule="evenodd"></path><path d="M354 27.39l-70.3 96.91 46.4 97.6-56.2 43.6 33 74.4-30.2 63.2 69.8 48.8 31.6 29.5 31.6-13.3L365.9 335l55.5-36.5 2.1-146.1-56.9-101.83zM116.6 55.48L89.9 123.6s33.7 65.3 35.8 68.8c2.1 3.6-7 118-7 118l42.8 73.8s9.9-82.9 7.1-83.6c-2.8-.7-29.5-42.1-29.5-42.1l23.8-84.3-36.5-37.2z" color="#000" overflow="visible" fill="#f2dbb9" fill-rule="evenodd" filter="url(#c)" enable-background="accumulate"></path><path d="M39.33 172.1l-5.62 108.1L74.45 328 42.84 464.9l96.96-39.3 30.2 42.9 74.4-38.7-80.8-169.9-60.4-16.9z" color="#000" overflow="visible" fill="#eed3a4" fill-rule="evenodd" enable-background="accumulate" filter="url(#d)"></path><path d="M266.9 66.72L324.5 191 434 221.2l21.8-111.6-41.4-68.86z" color="#000" overflow="visible" fill="#eed3a4" fill-rule="evenodd" enable-background="accumulate" filter="url(#e)"></path></svg><g class="" transform="translate(0,0)" style=""><path d="M18 18v229.88c22.044 9.644 49.156-17.056 37.773-38.415-9.77-18.333-28.462-64.016 2.426-62.99 28.694.953-6.267 51.97 28.515 57.074 34.492 3.933 27.964-35.193 22.09-56.23-.83-24.395 41.38-26.67 43.338-2.185 8.49 38.33 1.755 77.958-10.797 114.553-6.183 26.524 23.463 53.067 48.754 40.68 21.484-8.98 27.2-37.24 15.63-56.155-9.393-21.09-14.358-46.482-7.056-68.848 15.266-17.564 34.26-2.558 31.67 19.4-2.603 22.057 34.583 31.325 47.707 12.366 12.132-13.536-3.528-44.482 25.866-38.55 24.315 8.45 20.396 42.19 23.975 63.074 1.875 57.63-4.794 115.585-17.48 171.766-6.737 21.168-15.6 49.026 4.77 65.818 20.44 19.52 57 2.728 57.87-24.834.22-41.152-14.95-80.59-16.593-121.685-1.99-51.07-6.23-102.407-1.945-153.452-1.35-22.65 26.44-52.9 47.29-33.247 14.973 22.996-3.973 48.37-2.218 71.568 2.93 38.73 64.42 11.456 42.328-19.217-15.696-21.732 21.673-62.3 29.37-24.413 9.04 28.41 11.366 62.216-2.663 88.127-10.492 19.376-17.404 46.694 5.806 56.666 7.55 3.914 15.26 3.6 19.574-.25V18zm58.988 120.832c21.007 14.74 2.246 37.2 10.23 48.88 1.113 2.357 9.44 7.467 7.966 7.622-27.937-2.57-17.47-21.197-16.758-39.598-1.642-9.125-3.514-16.687-1.438-16.904zm83.46 9.176c15.11 37.11 14.654 71.48.814 107.937-7.613 16.268 12.677 35.28 19.03 39.336-27.713-3.024-36.51-30.838-25.93-52.378 9.564-30.688 12.476-54.2 6.085-94.894zm79.997 28.32c-.87 14.396 8.95 22.896 30.348 29.96-17.49 11.152-43.003-10.59-30.348-29.96zm167.602 13.215c1.624-.008 3.56 2.88 5.043 10.062 3.194 15.478 16.705 9.406 26.406.688.426 17.666-31.39 25.417-34.154 3.49-1.372-8.03.33-14.228 2.705-14.24zm78.185 14.55a.422.422 0 0 1 .147.013c.786 6.186 1.374 13.183 1.243 19.416 3.29 24.09-15.953 44.724-7.834 67.03 4.092 11.247 3.7 18.713-7.085 10.108-13.438-12.492-2.112-35.942 4.592-52.05 6.498-9.613 5.937-44.258 8.935-44.518zm-150.543 59.9c4.252 13.3 1.957 33.317 3.156 48.777-1.066 44.92-10.64 87.364-14.39 131.2-.59 6.89 13.26 28.558-1.274 20.708-17.077-9.554-10.357-31.603-7.137-46.46 13.697-50.267 17.806-102.36 19.644-154.226z" fill="#721c27" fill-opacity="1" stroke="#1e0808" stroke-opacity="1" stroke-width="4" transform="translate(0, 0) scale(1, 1) rotate(-360, 256, 256) skewX(0) skewY(0)" filter="url(#shadow-1)"></path></g></svg>